<svg id="Laag_1" data-name="Laag 1" xmlns="http://www.w3.org/2000/svg" viewBox="0 0 273.0936 63.88976"><defs><style>.cls-1{fill:#303030;}.cls-2{fill:#ff9e9b;}</style></defs><path class="cls-1" d="M335.46841,275.202h8.44408v5.32508c2.13-3.57538,7.07478-5.93366,12.32377-5.93366,11.33485,0,18.94212,7.75941,18.94212,19.77888,0,12.01954-7.60727,19.77894-18.94212,19.77894-5.17294,0-10.19373-2.35827-12.32377-6.00976v21.44118h-8.368Zm19.855,31.79842c6.61835,0,11.33484-5.173,11.33484-12.62812,0-7.53119-4.71649-12.62806-11.33484-12.62806-6.6944,0-11.4109,5.09687-11.4109,12.62806C343.91249,301.75141,348.629,307.00043,355.32339,307.00043Z" transform="translate(-284.39808 -265.69292)"/><path class="cls-1" d="M379.50962,303.04462c0-7.60724,5.249-11.56306,17.11637-12.85627l7.75944-.76074v-.989c0-4.48828-3.19507-7.15082-8.06373-7.15082-4.56436,0-7.60727,2.43433-8.21585,6.92261h-8.368c1.065-7.53119,7.15082-13.617,16.58384-13.617,9.58518,0,16.43171,5.40119,16.43171,14.83418v24.11506h-8.368v-5.55328c-1.59754,3.34717-6.314,6.16186-11.487,6.16186C384.75865,314.15125,379.50962,309.663,379.50962,303.04462Zm14.75812,4.48828c6.08582,0,10.11769-4.79254,10.11769-10.87836v-1.06506l-7.37907.9129c-6.46619.76074-9.20481,2.35828-9.20481,6.16187C387.80155,305.70716,390.312,307.5329,394.26774,307.5329Z" transform="translate(-284.39808 -265.69292)"/><path class="cls-1" d="M454.58809,303.04462c0-7.60724,5.249-11.56306,17.11634-12.85627l7.75943-.76074v-.989c0-4.48828-3.19507-7.15082-8.06372-7.15082-4.56436,0-7.60727,2.43433-8.21586,6.92261h-8.368c1.065-7.53119,7.15082-13.617,16.58384-13.617,9.58518,0,16.43171,5.40119,16.43171,14.83418v24.11506h-8.368v-5.55328c-1.59753,3.34717-6.31406,6.16186-11.487,6.16186C459.83708,314.15125,454.58809,309.663,454.58809,303.04462Zm14.75809,4.48828c6.08582,0,10.11768-4.79254,10.11768-10.87836v-1.06506l-7.37906.9129c-6.46619.76074-9.20481,2.35828-9.20481,6.16187C462.88,305.70716,465.3904,307.5329,469.34618,307.5329Z" transform="translate(-284.39808 -265.69292)"/><path class="cls-1" d="M494.25229,299.69745V275.202h8.368v22.974c0,5.47724,3.119,8.67231,7.98764,8.67231,6.6944,0,10.72627-5.7815,10.72627-15.1385V275.202h8.368v38.34066h-8.368V307.609c-2.20612,3.6515-6.77048,6.54224-12.8563,6.54224C500.262,314.15125,494.25229,308.90223,494.25229,299.69745Z" transform="translate(-284.39808 -265.69292)"/><path class="cls-1" d="M539.46244,301.371V282.04858h-6.238V275.202h6.238v-9.50909h8.368V275.202h9.35694v6.84657h-9.35694V300.6864c0,4.10792,2.13,6.16187,5.40119,6.16187a13.57833,13.57833,0,0,0,4.26007-.76074v7.07477a13.54806,13.54806,0,0,1-5.3251.98895C544.93967,314.15125,539.46244,309.663,539.46244,301.371Z" transform="translate(-284.39808 -265.69292)"/><polygon class="cls-1" points="169.022 9.512 160.131 9.512 149.853 36.591 139.576 9.512 130.685 9.512 145.67 47.401 145.67 63.887 154.037 63.887 154.037 47.401 169.022 9.512"/><rect class="cls-1" y="28.67839" width="19.16926" height="19.16926"/><polygon class="cls-2" points="10.221 9.509 0 19.73 0 24.841 15.332 9.509 10.221 9.509"/><polygon class="cls-2" points="9.998 25.065 25.553 9.509 20.443 9.509 4.887 25.065 9.998 25.065"/><polygon class="cls-2" points="0 9.509 0 14.62 5.111 9.509 0 9.509"/><polygon class="cls-2" points="16.91 25.065 16.91 25.065 20.219 25.065 35.775 9.509 30.664 9.509 15.109 25.065 16.91 25.065"/><polygon class="cls-2" points="22.783 42.944 38.338 27.389 38.338 22.278 22.783 37.833 22.783 42.944"/><polygon class="cls-2" points="28.101 47.848 38.338 37.61 38.338 32.499 22.99 47.848 28.101 47.848"/><polygon class="cls-2" points="22.783 27.612 22.783 32.722 38.338 17.167 38.338 12.056 22.783 27.612"/><polygon class="cls-2" points="33.228 47.848 38.338 47.848 38.338 42.737 38.338 42.721 33.212 47.848 33.228 47.848"/></svg>